# xmcd CD database file
# Copyright (C) 1995-1998 Ti Kan
#
# Track frame offsets:
#	150
#	26992
#	36655
#	75791
#	101819
#	117265
#	132407
#	141138
#	168683
#
# Disc length: 2414 seconds
#
# Revision: 6
# Processed by: cddbd v1.5.2PL0 Copyright (c) Steve Scherf et al.
# Submitted via: CDex 1.30PlusFR
#
DISCID=7e096c09
DTITLE=Domenico Scarlatti - Neuf sonates pour piano  (Dubravka Tomsic, piano
DTITLE=)
DYEAR=1900
DGENRE=Blues
TTITLE0=Sonate en sol majeur, L.103
TTITLE1=Sonate en ut majeur, L.104
TTITLE2=Sonate en fa mineur, L.118
TTITLE3=Sonate en mi majeur, L.210
TTITLE4=Sonate en sol majeur, L.349
TTITLE5=Sonate en ut majeur, L.352
TTITLE6=Sonate en ré mineur, L.366
TTITLE7=Sonate en fa mineur, L.383
TTITLE8=Sonate en sol majeur, L.387
EXTD=ID3G:   0
EXTT0=
EXTT1=
EXTT2=
EXTT3=
EXTT4=
EXTT5=
EXTT6=
EXTT7=
EXTT8=
PLAYORDER=
